<?xml version="1.0" encoding="utf-8"?>
<!-- Generator: Adobe Illustrator 16.0.0, SVG Export Plug-In . SVG Version: 6.00 Build 0)  -->
<!DOCTYPE svg PUBLIC "-//W3C//DTD SVG 1.1//EN" "http://www.w3.org/Graphics/SVG/1.1/DTD/svg11.dtd">
<svg version="1.1" id="Layer_1" xmlns="http://www.w3.org/2000/svg" xmlns:xlink="http://www.w3.org/1999/xlink" x="0px" y="0px"
	 width="800px" height="800px" viewBox="0 0 800 800" enable-background="new 0 0 800 800" xml:space="preserve">
<polygon points="557.94,100.42 497.27,530.8 427.2,557.13 438.8,474.6 358.27,376.23 470.62,274.07 496.97,86.53 389.07,126.26 
	374.08,232.94 297.78,302.33 318.89,152.11 210.99,191.85 142.92,676.19 242.06,698.78 277.01,450.13 333.81,519.52 306.55,713.47 
	589,607.34 657.08,123.01 "/>
<polygon fill="#9F1B96" points="557.94,100.42 497.27,530.8 427.2,557.13 438.8,474.6 358.27,376.23 470.62,274.07 496.97,86.53 
	389.07,126.26 374.08,232.94 297.78,302.33 318.89,152.11 210.99,191.85 142.92,676.19 242.06,698.78 277.01,450.13 333.81,519.52 
	306.55,713.47 589,607.34 657.08,123.01 "/>
<linearGradient id="SVGID_1_" gradientUnits="userSpaceOnUse" x1="395.9463" y1="570.5244" x2="319.7473" y2="392.7391">
	<stop  offset="0.1701" style="stop-color:#9F1B96"/>
	<stop  offset="0.2765" style="stop-color:#7332A5"/>
	<stop  offset="0.413" style="stop-color:#424DB7"/>
	<stop  offset="0.5329" style="stop-color:#1E61C3"/>
	<stop  offset="0.6303" style="stop-color:#086CCB"/>
	<stop  offset="0.6929" style="stop-color:#0071CE"/>
</linearGradient>
<polyline fill="url(#SVGID_1_)" points="277.01,450.13 333.81,519.52 323.02,596.27 427.2,557.13 438.8,474.6 358.27,376.23 "/>
<polyline fill="#0071CE" points="358.27,376.23 470.62,274.07 496.97,86.53 389.07,126.26 374.08,232.94 297.78,302.33 
	318.89,152.11 210.99,191.85 142.92,676.19 242.06,698.78 277.01,450.13 "/>
</svg>
