<?xml version="1.0" encoding="utf-8"?>
<!-- Generator: Adobe Illustrator 16.0.0, SVG Export Plug-In . SVG Version: 6.00 Build 0)  -->
<!DOCTYPE svg PUBLIC "-//W3C//DTD SVG 1.1//EN" "http://www.w3.org/Graphics/SVG/1.1/DTD/svg11.dtd">
<svg version="1.1" id="Layer_1" xmlns="http://www.w3.org/2000/svg" xmlns:xlink="http://www.w3.org/1999/xlink" x="0px" y="0px"
	 width="300px" height="400px" viewBox="50 0 300 400" enable-background="new 50 0 300 400" xml:space="preserve">
<path fill="#E62C31" d="M338.984,76.484l-65.547-65.547c-7.031-7.031-16.563-11.016-26.484-11.016H87.5C66.797,0,50,16.797,50,37.5
	v325c0,20.703,16.797,37.5,37.5,37.5h225c20.703,0,37.5-16.797,37.5-37.5V103.047C350,93.125,346.016,83.516,338.984,76.484z
	 M309.453,100H250V40.547L309.453,100z M87.5,362.5v-325h125v81.25c0,10.391,8.359,18.75,18.75,18.75h81.25v225H87.5z
	 M282.969,250.234c-9.531-9.375-36.719-6.797-50.313-5.078c-13.438-8.203-22.422-19.531-28.75-36.172
	c3.047-12.578,7.891-31.719,4.219-43.75c-3.281-20.469-29.531-18.438-33.281-4.609c-3.438,12.578-0.313,30.078,5.469,52.422
	c-7.813,18.672-19.453,43.75-27.656,58.125c-15.625,8.047-36.719,20.469-39.844,36.094c-2.578,12.344,20.313,43.125,59.453-24.375
	c17.5-5.781,36.563-12.891,53.438-15.703c14.766,7.969,32.031,13.281,43.594,13.281
	C289.219,280.469,291.172,258.438,282.969,250.234z M128.203,311.016c3.984-10.703,19.141-23.047,23.75-27.344
	C137.109,307.344,128.203,311.563,128.203,311.016z M191.953,162.109c5.781,0,5.234,25.078,1.406,31.875
	C189.922,183.125,190,162.109,191.953,162.109z M172.891,268.828c7.578-13.203,14.063-28.906,19.297-42.734
	c6.484,11.797,14.766,21.25,23.516,27.734C199.453,257.188,185.313,264.063,172.891,268.828z M275.703,264.922
	c0,0-3.906,4.688-29.141-6.094C273.984,256.797,278.516,263.047,275.703,264.922z"/>
</svg>
