<?xml version="1.0" encoding="utf-8"?>
<!-- Generator: Adobe Illustrator 16.0.0, SVG Export Plug-In . SVG Version: 6.00 Build 0)  -->
<!DOCTYPE svg PUBLIC "-//W3C//DTD SVG 1.1//EN" "http://www.w3.org/Graphics/SVG/1.1/DTD/svg11.dtd">
<svg version="1.1" id="Layer_1" xmlns="http://www.w3.org/2000/svg" xmlns:xlink="http://www.w3.org/1999/xlink" x="0px" y="0px"
	 width="300px" height="400px" viewBox="50 0 300 400" enable-background="new 50 0 300 400" xml:space="preserve">
<path fill="#0D459C" d="M338.984,76.484l-65.547-65.547c-7.031-7.031-16.563-11.016-26.484-11.016H87.5C66.797,0,50,16.797,50,37.5
	v325c0,20.703,16.797,37.5,37.5,37.5h225c20.703,0,37.5-16.797,37.5-37.5V103.047C350,93.125,346.016,83.516,338.984,76.484z
	 M309.453,100H250V40.547L309.453,100z M87.5,362.5v-325h125v81.25c0,10.391,8.359,18.75,18.75,18.75h81.25v225H87.5z M259.453,200
	c-4.453,0-8.281,3.125-9.141,7.422c-16.094,76.328-15.938,74.531-16.406,80.859c-0.156-0.938-0.313-2.031-0.547-3.359
	c-0.625-3.984,0.234,0.156-18.438-77.734c-1.016-4.219-4.766-7.188-9.141-7.188h-10.391c-4.297,0-8.047,2.969-9.141,7.109
	c-19.063,77.344-18.75,75.156-19.375,81.016c-0.078-0.859-0.156-1.953-0.391-3.281c-0.547-4.063-11.016-57.266-14.922-77.344
	c-0.859-4.375-4.688-7.578-9.219-7.578h-13.125c-6.094,0-10.547,5.703-9.141,11.563c6.25,25.469,20.859,85.547,25.938,106.25
	c1.016,4.219,4.766,7.109,9.141,7.109h19.688c4.297,0,8.047-2.891,9.063-7.109l13.984-55.781c1.172-4.844,1.953-9.375,2.344-13.516
	l2.266,13.516c0.078,0.313,9.844,39.453,13.984,55.781c1.016,4.141,4.766,7.109,9.063,7.109h19.297c4.297,0,8.047-2.891,9.063-7.109
	c16.25-63.984,23.594-92.969,26.953-106.25c1.484-5.938-2.969-11.641-9.063-11.641h-12.344V200z"/>
</svg>
