<svg version="1.1" baseProfile="basic" id="Layer_1"
	 xmlns="http://www.w3.org/2000/svg" xmlns:xlink="http://www.w3.org/1999/xlink"
	 viewBox="308 144 384 512" xml:space="preserve">
<path d="M677.865,241.981l-83.884-83.884C584.983,149.099,572.786,144,560.088,144h-204.06c-26.495,0.1-47.991,21.596-47.991,48.091
	V608.01c0,26.494,21.496,47.99,47.991,47.99h287.943c26.495,0,47.991-21.496,47.991-47.99V275.974
	C691.963,263.277,686.863,250.979,677.865,241.981z M640.072,272.075h-76.085V195.99L640.072,272.075z M356.028,608.01V192.091
	h159.969V296.07c0,13.297,10.697,23.995,23.995,23.995h103.979V608.01H356.028z M436.97,559.657h-17.003
	c-1.33,0-2.293-0.297-2.888-0.892c-0.595-0.594-0.891-1.557-0.891-2.887v-51.536h-15.43c-1.331,0-2.293-0.297-2.887-0.893
	c-0.596-0.594-0.893-1.556-0.893-2.887v-12.699c0-1.329,0.297-2.292,0.893-2.887c0.594-0.594,1.556-0.893,2.887-0.893h55.419
	c1.328,0,2.292,0.299,2.887,0.893c0.593,0.595,0.893,1.558,0.893,2.887v12.699c0,1.331-0.3,2.293-0.893,2.887
	c-0.595,0.596-1.559,0.893-2.887,0.893h-15.429v51.536c0,1.33-0.299,2.293-0.893,2.887
	C439.262,559.36,438.299,559.657,436.97,559.657z M491.129,555.879c0,1.33-0.298,2.293-0.892,2.887
	c-0.596,0.595-1.559,0.892-2.887,0.892h-15.954c-1.33,0-2.293-0.297-2.886-0.892c-0.597-0.594-0.894-1.557-0.894-2.887v-11.231
	c0-3.218,0.279-5.632,0.841-7.242c0.559-1.608,1.608-3.497,3.148-5.667l8.502-11.441l-8.502-11.441
	c-1.61-2.168-2.677-4.057-3.201-5.668c-0.524-1.608-0.788-4.022-0.788-7.241v-8.082c0-1.329,0.297-2.292,0.894-2.887
	c0.593-0.594,1.556-0.893,2.886-0.893h16.164c1.328,0,2.291,0.299,2.887,0.893c0.594,0.595,0.893,1.558,0.893,2.887v7.241
	c0,0.701,0.034,1.436,0.104,2.205c0.069,0.771,0.349,1.505,0.84,2.204l4.618,6.612c0.35,0.561,0.717,0.996,1.103,1.313
	c0.383,0.314,0.855,0.472,1.417,0.472h1.259c0.56,0,1.014-0.157,1.365-0.472c0.35-0.316,0.734-0.752,1.154-1.313l4.724-6.612
	c0.488-0.699,0.769-1.434,0.839-2.204c0.069-0.77,0.105-1.504,0.105-2.205v-7.241c0-1.329,0.297-2.292,0.893-2.887
	c0.594-0.594,1.556-0.893,2.886-0.893h15.954c1.328,0,2.292,0.299,2.887,0.893c0.595,0.595,0.893,1.558,0.893,2.887v8.082
	c0,3.219-0.28,5.633-0.841,7.241c-0.56,1.611-1.61,3.5-3.147,5.668l-8.502,11.546l8.502,11.337c1.608,2.17,2.677,4.059,3.2,5.667
	c0.525,1.61,0.788,4.024,0.788,7.242v11.231c0,1.33-0.298,2.293-0.893,2.887c-0.595,0.595-1.559,0.892-2.887,0.892h-15.954
	c-1.33,0-2.292-0.297-2.886-0.892c-0.596-0.594-0.893-1.557-0.893-2.887v-10.391c0-0.699-0.036-1.434-0.105-2.205
	c-0.07-0.77-0.351-1.504-0.839-2.204l-4.619-6.612c-0.42-0.63-0.805-1.084-1.154-1.364c-0.351-0.279-0.806-0.42-1.364-0.42h-1.47
	c-0.562,0-1.016,0.141-1.364,0.42c-0.352,0.28-0.734,0.734-1.154,1.364l-4.724,6.612c-0.49,0.7-0.771,1.435-0.84,2.204
	c-0.07,0.771-0.105,1.506-0.105,2.205V555.879z M580.033,559.657h-17.004c-1.331,0-2.293-0.297-2.887-0.892
	c-0.596-0.594-0.893-1.557-0.893-2.887v-51.536h-15.43c-1.33,0-2.292-0.297-2.886-0.893c-0.596-0.594-0.893-1.556-0.893-2.887
	v-12.699c0-1.329,0.297-2.292,0.893-2.887c0.594-0.594,1.556-0.893,2.886-0.893h55.42c1.329,0,2.291,0.299,2.887,0.893
	c0.594,0.595,0.893,1.558,0.893,2.887v12.699c0,1.331-0.299,2.293-0.893,2.887c-0.596,0.596-1.558,0.893-2.887,0.893h-15.429v51.536
	c0,1.33-0.299,2.293-0.892,2.887C582.324,559.36,581.361,559.657,580.033,559.657z"/>
</svg>
