<?xml version="1.0" standalone="no"?>
<!DOCTYPE svg PUBLIC "-//W3C//DTD SVG 20010904//EN"
 "http://www.w3.org/TR/2001/REC-SVG-20010904/DTD/svg10.dtd">
<svg version="1.0" xmlns="http://www.w3.org/2000/svg"
 width="700.000000pt" height="700.000000pt" viewBox="0 0 700.000000 700.000000"
 preserveAspectRatio="xMidYMid meet">
<metadata>
Created by potrace 1.11, written by Peter Selinger 2001-2013
</metadata>
<g transform="translate(0.000000,700.000000) scale(0.100000,-0.100000)"
fill="#000000" stroke="none">
<path d="M1919 6463 c-1 -10 -2 -29 -4 -43 -1 -14 -5 -61 -9 -105 -4 -44 -8
-100 -11 -125 -2 -25 -7 -76 -10 -115 -3 -38 -8 -88 -10 -110 -2 -22 -7 -74
-10 -115 -3 -41 -8 -91 -10 -110 -2 -19 -7 -69 -10 -110 -4 -41 -8 -95 -10
-120 -2 -25 -7 -76 -10 -115 -3 -38 -7 -90 -10 -115 -2 -25 -6 -76 -10 -115
-11 -146 -16 -201 -20 -225 -2 -14 -7 -65 -10 -115 -4 -49 -8 -106 -10 -125
-3 -19 -7 -69 -11 -110 -3 -41 -7 -88 -9 -105 -1 -16 -5 -66 -9 -110 -7 -81
-9 -99 -20 -240 -4 -44 -9 -93 -11 -110 -2 -16 -7 -68 -10 -115 -4 -47 -8
-101 -10 -120 -2 -19 -6 -71 -10 -115 -3 -44 -8 -96 -10 -116 -3 -20 -7 -72
-10 -115 -3 -44 -7 -90 -10 -104 -2 -14 -7 -63 -10 -110 -3 -47 -8 -101 -10
-120 -2 -19 -7 -69 -10 -110 -3 -41 -8 -95 -10 -120 -3 -25 -7 -74 -10 -110
-3 -36 -8 -92 -11 -125 -8 -89 -12 -142 -19 -220 -3 -38 -8 -92 -10 -120 -3
-27 -7 -79 -10 -115 -3 -36 -7 -85 -10 -109 -2 -24 -7 -75 -10 -115 -3 -39 -7
-91 -10 -116 -2 -25 -7 -74 -10 -110 -3 -36 -8 -92 -11 -125 -3 -33 -7 -80 -9
-105 -9 -107 -17 -197 -20 -230 -2 -19 -7 -71 -10 -115 -3 -44 -8 -102 -11
-129 -2 -28 -1 -46 3 -42 10 9 312 299 404 388 159 151 440 421 540 518 l108
105 6 75 c3 41 8 95 10 120 5 42 7 76 20 233 2 31 7 78 9 105 3 26 8 81 11
122 4 41 8 91 10 110 2 19 6 71 10 115 4 44 8 98 10 120 2 22 7 72 10 110 8
97 14 171 20 230 2 28 7 82 10 120 4 39 8 87 9 108 2 20 5 39 8 42 3 3 27 -21
54 -52 27 -32 85 -98 129 -149 44 -50 123 -140 175 -200 52 -60 97 -111 100
-114 3 -3 48 -54 100 -115 52 -60 99 -115 105 -121 5 -6 35 -40 65 -75 30 -35
91 -104 135 -155 44 -50 143 -163 220 -251 77 -89 141 -160 143 -158 2 2 7 46
16 150 22 252 27 315 31 352 2 24 7 78 10 120 3 43 8 92 10 108 2 17 6 66 10
110 3 44 8 94 10 110 2 17 7 71 10 120 4 50 8 101 10 115 3 14 7 67 11 118 l6
93 -64 72 c-34 40 -65 74 -68 77 -3 3 -48 55 -100 115 -52 61 -97 112 -100
115 -3 3 -32 37 -65 75 -33 39 -63 72 -66 75 -7 6 -129 148 -147 172 -14 18
-3 29 534 553 228 223 206 186 218 360 4 44 8 96 11 115 2 19 7 73 10 120 4
47 8 99 10 115 2 17 7 68 10 115 3 47 8 101 10 120 3 19 7 69 10 110 4 41 8
89 9 105 2 17 7 68 11 115 4 47 8 101 10 121 2 19 7 74 10 122 l6 87 -480 0
c-264 0 -482 -3 -484 -7 -3 -5 -8 -46 -11 -93 -4 -47 -9 -101 -11 -120 -2 -19
-7 -71 -11 -115 -3 -44 -8 -93 -9 -110 -2 -16 -6 -70 -10 -118 -3 -48 -8 -96
-10 -105 -2 -10 -6 -63 -10 -119 -4 -56 -8 -110 -10 -120 -2 -10 -4 -37 -4
-60 -1 -43 -6 -49 -211 -243 -20 -19 -76 -73 -124 -120 l-88 -85 6 90 c4 50 8
104 10 120 2 17 7 68 11 115 3 47 8 101 10 120 2 19 8 96 15 170 6 74 13 155
15 180 2 25 7 72 10 105 2 33 7 85 10 115 3 30 7 83 10 118 7 90 15 180 20
235 l5 47 -485 0 c-455 0 -485 -1 -486 -17z"/>
<path d="M5524 6027 c-26 -27 -238 -231 -479 -462 -29 -27 -140 -134 -246
-236 -107 -102 -217 -208 -246 -235 l-52 -49 -6 -80 c-3 -44 -8 -98 -10 -120
-2 -22 -7 -74 -10 -115 -4 -41 -8 -91 -10 -110 -3 -31 -10 -119 -20 -235 -9
-96 -22 -249 -30 -335 -2 -25 -7 -76 -10 -115 -3 -38 -7 -90 -10 -115 -2 -25
-7 -76 -10 -115 -3 -38 -8 -86 -10 -105 -2 -19 -7 -71 -10 -115 -3 -44 -8 -98
-10 -120 -2 -22 -7 -74 -10 -115 -3 -41 -7 -89 -9 -105 -2 -17 -7 -68 -11
-115 -8 -109 -12 -160 -20 -240 -9 -103 -14 -150 -20 -230 -4 -41 -8 -91 -10
-110 -2 -19 -6 -69 -9 -110 -4 -41 -8 -93 -10 -115 -2 -22 -7 -76 -11 -120 -3
-44 -8 -96 -10 -115 -2 -19 -7 -69 -10 -110 -3 -41 -8 -95 -10 -120 -2 -25 -7
-83 -10 -130 -4 -47 -11 -87 -15 -90 -7 -4 -361 -5 -380 -1 -3 0 -35 35 -70
77 -36 43 -70 82 -75 88 -6 6 -60 67 -119 136 -60 69 -135 154 -166 190 -32
36 -110 126 -175 200 -64 74 -141 162 -170 195 -29 33 -64 74 -78 90 -18 20
-27 25 -28 15 0 -8 -2 -31 -4 -50 -2 -19 -9 -91 -15 -160 -6 -69 -12 -141 -15
-160 -4 -39 -16 -171 -20 -240 -4 -57 -15 -184 -20 -230 -2 -19 -7 -69 -10
-110 -11 -138 -15 -185 -20 -230 -3 -25 -7 -74 -10 -110 -5 -66 -12 -149 -20
-230 -5 -60 -13 -151 -20 -225 -2 -33 -7 -89 -11 -125 -3 -36 -7 -82 -8 -102
l-3 -38 1158 0 c637 0 1160 3 1162 8 3 4 8 48 12 97 4 50 8 101 10 115 2 14 7
63 10 110 3 47 8 96 10 110 2 14 7 68 10 120 3 52 8 106 10 120 2 14 7 63 10
110 4 47 8 101 10 120 2 19 6 67 9 105 4 39 9 93 11 120 3 28 7 77 10 110 3
33 8 83 10 110 3 28 7 82 10 120 3 39 7 93 10 120 2 28 7 82 10 120 4 39 8 85
10 102 2 18 7 72 10 120 3 49 8 99 10 113 2 14 7 63 10 110 4 47 8 96 10 110
2 14 7 70 11 125 3 55 8 109 10 120 2 11 6 58 9 105 3 47 8 101 10 120 4 33 7
68 20 218 12 143 19 221 30 342 3 30 7 84 10 120 3 36 7 90 10 120 3 30 8 80
10 110 9 108 16 186 20 230 2 25 7 72 10 105 10 117 16 191 20 230 3 22 7 76
10 120 3 44 7 96 10 115 2 19 7 67 10 105 3 39 7 90 10 115 3 25 7 75 10 112
2 36 6 88 9 115 3 26 8 80 11 118 13 150 15 172 20 230 3 33 7 85 10 115 14
153 15 180 13 179 -2 0 -17 -15 -34 -32z"/>
</g>
</svg>
